<?xml version="1.0" encoding="utf-8"?>
<!-- Generator: Adobe Illustrator 18.1.1, SVG Export Plug-In . SVG Version: 6.00 Build 0)  -->
<svg version="1.1" id="Layer_1" xmlns="http://www.w3.org/2000/svg" xmlns:xlink="http://www.w3.org/1999/xlink" x="0px" y="0px"
	 viewBox="0 0 113.5 156" enable-background="new 0 0 113.5 156" xml:space="preserve">
<g>
	<g>
		<path fill="#EF4849" d="M29.346,44.631c-8.213-7.188-13.067-17.512-13.718-29.074C10.714,19.323,4.736,28.22,1,33.151V78.3
			c4.335-4.144,9.063-7.742,14.096-10.761L29.346,44.631z"/>
		<path fill="#EF4849" d="M20.22,80.009c-1.688-6.604-2.749-7.716-5.395-10.827C10.397,72.172,4.702,76.134,1,79.955v19.418v4.356
			v2.347h0.013C1.009,106.206,1,106.334,1,106.466c0,2.991,0.561,5.581,3.108,7.454C5.045,100.608,11.058,88.671,20.22,80.009z"/>
		<path fill="#EF4849" d="M29.896,43.619l6.612-10.686c5.862-2.942,12.483-4.6,19.492-4.6c7.012,0,13.63,1.658,19.49,4.6
			l6.616,10.686c7.864-7.07,12.829-17.275,12.896-28.617C83.914,7.398,70.479,2.945,56,2.945c-14.48,0-27.913,4.453-39.002,12.057
			C17.064,26.344,22.032,36.549,29.896,43.619z"/>
		<path fill="#EF4849" d="M91.782,80.009c9.163,8.662,15.172,20.6,16.111,33.911c2.546-1.873,3.108-4.463,3.108-7.454
			c0-0.132-0.009-0.26-0.013-0.389H111v-2.347v-4.356V80.486c-3.703-3.822-9.928-8.314-14.357-11.304
			C93.208,74.3,93.175,74.864,91.782,80.009z"/>
		<path fill="#EF4849" d="M96.369,16.136c-0.649,11.562-5.503,21.353-13.717,28.543l14.252,23.438
			c5.032,3.019,9.762,6.617,14.097,10.761V33.73C107.265,28.799,101.286,19.902,96.369,16.136z"/>
		<path fill="#EF4849" d="M36.385,115.938c-1.342-0.677-2.644-1.422-3.899-2.231c-1.589-9.33-6.305-25.384-11.526-32.84
			c-8.793,8.444-14.961,20.459-16.031,33.621l47.269,34.364v0.012c1.474,0.978,2.764,2.212,3.803,3.64
			c1.062-1.457,2.387-2.71,3.899-3.702l47.172-34.314c-0.537-12.968-7.239-25.178-16.032-33.621
			c-5.22,7.457-9.935,23.511-11.521,32.84c-1.259,0.809-2.562,1.555-3.904,2.231h-0.124v0.063
			c-5.859,2.942-12.478,5.661-19.49,5.661c-7.009,0-13.63-2.719-19.492-5.661L36.385,115.938z"/>
		<polygon fill="#EF4849" points="70.742,100.173 57.504,92.51 57.504,88.905 66.537,80.377 56,84.428 56,84.419 45.442,80.358 
			54.476,88.887 54.476,92.496 41.236,100.162 55.975,93.841 55.975,93.846 		"/>
		<path fill="#EF4849" d="M75.445,61.797l-8.908,1.298l0.657,2.739L78.3,62.605C77.356,62.318,76.405,62.049,75.445,61.797z"/>
		<path fill="#EF4849" d="M36.546,61.8c-0.96,0.252-1.911,0.521-2.856,0.809l11.095,3.225l0.657-2.739L36.546,61.8z"/>
	</g>
</g>
</svg>
