<?xml version="1.0" encoding="utf-8"?>
<!-- Generated by IcoMoon.io -->
<!DOCTYPE svg PUBLIC "-//W3C//DTD SVG 1.1//EN" "http://www.w3.org/Graphics/SVG/1.1/DTD/svg11.dtd">
<svg 
	version="1.1" 
	xmlns="http://www.w3.org/2000/svg" 
	xmlns:xlink="http://www.w3.org/1999/xlink" 
	width="250" 
	height="150" 
	viewBox="0 0 250 150">
	<defs>
		<symbol id="facebook-icon"> 
			<!-- width="11" height="20" viewBox="0 0 11 20" x="0" y="40" -->
			<path d="M10.703 0.134v2.946h-1.752q-0.96 0-1.295 0.402t-0.335 1.205v2.109h3.27l-0.435 3.304h-2.835v8.471h-3.415v-8.471h-2.846v-3.304h2.846v-2.433q0-2.076 1.161-3.22t3.092-1.144q1.641 0 2.545 0.134z"></path>
		</symbol>
	</defs>	
	<defs>
		<symbol id="google-plus-icon"> 
			<!-- width="20" height="20" viewBox="0 0 20 20" x="72" y="40" -->
			<path d="M10.919 1.25c0 0-3.925 0-5.233 0-2.346 0-4.554 1.777-4.554 3.836 0 2.104 1.599 3.802 3.986 3.802 0.166 0 0.327-0.003 0.485-0.015-0.155 0.297-0.266 0.631-0.266 0.977 0 0.585 0.315 1.059 0.712 1.446-0.301 0-0.591 0.009-0.907 0.009-2.906-0-5.143 1.851-5.143 3.77 0 1.89 2.452 3.073 5.358 3.073 3.313 0 5.143-1.88 5.143-3.77 0-1.516-0.447-2.423-1.83-3.401-0.473-0.335-1.378-1.149-1.378-1.628 0-0.561 0.16-0.837 1.004-1.497 0.865-0.676 1.478-1.627 1.478-2.733 0-1.317-0.586-2.6-1.687-3.023h1.659l1.171-0.847zM9.091 14.052c0.042 0.175 0.064 0.356 0.064 0.54 0 1.527-0.984 2.721-3.808 2.721-2.009 0-3.459-1.272-3.459-2.799 0-1.497 1.799-2.743 3.808-2.721 0.469 0.005 0.906 0.080 1.302 0.209 1.090 0.758 1.873 1.187 2.093 2.051zM5.875 8.355c-1.348-0.040-2.63-1.508-2.862-3.279s0.671-3.126 2.019-3.086c1.348 0.041 2.63 1.461 2.862 3.232s-0.672 3.173-2.019 3.133zM16.25 5v-3.75h-1.25v3.75h-3.75v1.25h3.75v3.75h1.25v-3.75h3.75v-1.25z"></path>
		</symbol>
	</defs>	
	<defs>
		<symbol id="gplus-icon"> 
			<!-- width="24" height="24" viewBox="0 0 24 24" x="0" y="0"  -->
			<path d="M23 11.001h-2v-2h-2v2h-2v2h2v2h2v-2h2zM8 11.001v2.4h4c-0.2 1-1.2 3-4 3-2.4 0-4.3-2-4.3-4.4s1.9-4.4 4.3-4.4c1.4 0 2.3 0.6 2.8 1.1l1.9-1.8c-1.2-1.2-2.8-1.9-4.7-1.9-3.9 0-7 3.1-7 7s3.1 7 7 7c4 0 6.7-2.8 6.7-6.8 0-0.5 0-0.8-0.1-1.2h-6.6z"></path>
		</symbol>
	</defs>		
	<defs>
		<symbol id="twitter-icon"> 
			<!-- width="20" height="20" viewBox="0 0 20 20" x="108" y="40" -->
			<path d="M20 3.797c-0.736 0.326-1.527 0.547-2.357 0.646 0.847-0.508 1.498-1.312 1.804-2.27-0.793 0.47-1.671 0.812-2.606 0.996-0.748-0.797-1.815-1.296-2.995-1.296-2.266 0-4.103 1.837-4.103 4.103 0 0.322 0.036 0.635 0.106 0.935-3.41-0.171-6.434-1.805-8.457-4.287-0.353 0.606-0.556 1.311-0.556 2.063 0 1.424 0.724 2.68 1.825 3.415-0.673-0.021-1.305-0.206-1.858-0.513-0 0.017-0 0.034-0 0.052 0 1.988 1.414 3.646 3.291 4.023-0.344 0.094-0.707 0.144-1.081 0.144-0.264 0-0.521-0.026-0.772-0.074 0.522 1.63 2.038 2.817 3.833 2.85-1.404 1.101-3.174 1.757-5.096 1.757-0.331 0-0.658-0.019-0.979-0.057 1.816 1.164 3.973 1.844 6.29 1.844 7.547 0 11.675-6.252 11.675-11.675 0-0.178-0.004-0.355-0.012-0.531 0.802-0.579 1.497-1.301 2.048-2.124z"></path>
		</symbol>
	</defs>	
	<defs>
		<symbol id="rss-icon"> 
			<!-- width="20" height="20" viewBox="0 0 20 20" x="144" y="40" -->
			<path d="M2.662 14.667c-1.469 0-2.662 1.198-2.662 2.658 0 1.468 1.193 2.652 2.662 2.652 1.474 0 2.666-1.185 2.666-2.652-0-1.46-1.192-2.658-2.666-2.658zM0.003 6.796v3.833c2.496 0 4.843 0.976 6.611 2.744 1.765 1.764 2.74 4.122 2.74 6.627h3.85c-0-7.282-5.923-13.204-13.2-13.204zM0.008 0v3.835c8.902 0 16.148 7.253 16.148 16.165h3.845c0-11.025-8.97-20-19.992-20z"></path>
		</symbol>
	</defs>	
	<defs>
		<symbol id="linkedin-icon"> 
			<!-- width="20" height="20" viewBox="0 0 20 20" x="180" y="40" -->
			<path d="M7.5 7.5h3.459v1.773h0.049c0.481-0.863 1.659-1.773 3.415-1.773 3.651 0 4.327 2.273 4.327 5.229v6.021h-3.606v-5.337c0-1.273-0.026-2.911-1.876-2.911-1.878 0-2.164 1.386-2.164 2.818v5.43h-3.604v-11.25z"></path>
			<path d="M1.25 7.5h3.75v11.25h-3.75v-11.25z"></path>
			<path d="M5 4.375c0 1.036-0.839 1.875-1.875 1.875s-1.875-0.839-1.875-1.875c0-1.036 0.839-1.875 1.875-1.875s1.875 0.839 1.875 1.875z"></path>
		</symbol>
	</defs>
	<defs>
		<symbol id="instagram-icon"> 
			<!-- width="20" height="20" viewBox="0 0 20 20" x="36" y="40" -->
			<path d="M15.201 15.915v-7.232h-1.507q0.223 0.703 0.223 1.462 0 1.406-0.714 2.595t-1.942 1.881-2.679 0.692q-2.199 0-3.761-1.512t-1.563-3.655q0-0.759 0.223-1.462h-1.574v7.232q0 0.29 0.195 0.485t0.485 0.195h11.931q0.279 0 0.48-0.195t0.201-0.485zM12.031 9.967q0-1.384-1.010-2.36t-2.439-0.977q-1.417 0-2.427 0.977t-1.010 2.36 1.010 2.36 2.427 0.977q1.429 0 2.439-0.977t1.010-2.36zM15.201 5.949v-1.842q0-0.313-0.223-0.541t-0.547-0.229h-1.942q-0.324 0-0.547 0.229t-0.223 0.541v1.842q0 0.324 0.223 0.547t0.547 0.223h1.942q0.324 0 0.547-0.223t0.223-0.547zM17.143 3.627v12.746q0 0.904-0.647 1.551t-1.551 0.647h-12.746q-0.904 0-1.551-0.647t-0.647-1.551v-12.746q0-0.904 0.647-1.551t1.551-0.647h12.746q0.904 0 1.551 0.647t0.647 1.551z"></path>
		</symbol>
	</defs>		

	<use xlink:href="#facebook-icon"      x="0"   y="0"   fill="#30ae77" />
	<use xlink:href="#facebook-icon"      x="0"   y="30"   fill="#8196a1" />
	<use xlink:href="#facebook-icon"      x="0"   y="60"   fill="#3b5998" />
	<use xlink:href="#google-plus-icon"   x="30"   y="0"   fill="#30ae77" />
	<use xlink:href="#google-plus-icon"   x="30"   y="30"   fill="#8196a1" />
	<use xlink:href="#google-plus-icon"   x="30"   y="60"   fill="#dc4e41" />
	<use xlink:href="#twitter-icon"       x="60"   y="0"   fill="#30ae77" />
	<use xlink:href="#twitter-icon"       x="60"   y="30"   fill="#8196a1" />
	<use xlink:href="#twitter-icon"       x="60"   y="60"   fill="#55acee" />		
	<use xlink:href="#rss-icon"           x="90"   y="0"   fill="#30ae77" />
	<use xlink:href="#rss-icon"           x="90"   y="30"   fill="#8196a1" />
	<use xlink:href="#rss-icon"           x="90"   y="60"   fill="#f26522" />	
	<use xlink:href="#linkedin-icon"      x="120"   y="0"   fill="#30ae77" />
	<use xlink:href="#linkedin-icon"      x="120"   y="30"   fill="#8196a1" />
	<use xlink:href="#linkedin-icon"      x="120"   y="60"   fill="#0077b5" />	
	<use xlink:href="#instagram-icon"     x="150"   y="0"   fill="#30ae77" />
	<use xlink:href="#instagram-icon"     x="150"   y="30"   fill="#8196a1" />
	<use xlink:href="#instagram-icon"     x="150"   y="60"   fill="#3f729b" />	
	<use xlink:href="#gplus-icon"         x="180"   y="0"   fill="#30ae77" />
	<use xlink:href="#gplus-icon"         x="180"   y="34"   fill="#8196a1" />
	<use xlink:href="#gplus-icon"         x="180"   y="68"   fill="#DC4E41" />			
</svg>
